<mxfile host="Electron" agent="Mozilla/5.0 (Windows NT 10.0; Win64; x64) AppleWebKit/537.36 (KHTML, like Gecko) draw.io/24.7.17 Chrome/128.0.6613.36 Electron/32.0.1 Safari/537.36" version="24.7.17">
  <diagram name="Page-1" id="PfFdcirzcV028Nw6eptN">
    <mxGraphModel dx="1500" dy="1999" grid="1" gridSize="10" guides="1" tooltips="1" connect="1" arrows="1" fold="1" page="1" pageScale="1" pageWidth="850" pageHeight="1100" background="none" math="0" shadow="0">
      <root>
        <mxCell id="0" />
        <mxCell id="1" parent="0" />
        <mxCell id="u3_5EbA_TvtJygDQ1i6E-4" value="" style="rounded=0;whiteSpace=wrap;html=1;hachureGap=4;fontFamily=Architects Daughter;fontSource=https%3A%2F%2Ffonts.googleapis.com%2Fcss%3Ffamily%3DArchitects%2BDaughter;" parent="1" vertex="1">
          <mxGeometry x="80" y="80" width="680" height="370" as="geometry" />
        </mxCell>
        <mxCell id="u3_5EbA_TvtJygDQ1i6E-6" value="" style="rounded=0;whiteSpace=wrap;html=1;hachureGap=4;fontFamily=Architects Daughter;fontSource=https%3A%2F%2Ffonts.googleapis.com%2Fcss%3Ffamily%3DArchitects%2BDaughter;" parent="1" vertex="1">
          <mxGeometry x="80" y="80" width="600" height="60" as="geometry" />
        </mxCell>
        <mxCell id="u3_5EbA_TvtJygDQ1i6E-7" value="" style="rounded=0;whiteSpace=wrap;html=1;hachureGap=4;fontFamily=Architects Daughter;fontSource=https%3A%2F%2Ffonts.googleapis.com%2Fcss%3Ffamily%3DArchitects%2BDaughter;" parent="1" vertex="1">
          <mxGeometry x="680" y="80" width="80" height="370" as="geometry" />
        </mxCell>
        <mxCell id="u3_5EbA_TvtJygDQ1i6E-8" value="&lt;font style=&quot;font-size: 16px;&quot;&gt;Brand&lt;/font&gt;" style="text;html=1;align=center;verticalAlign=middle;whiteSpace=wrap;rounded=0;fontFamily=Architects Daughter;fontSource=https%3A%2F%2Ffonts.googleapis.com%2Fcss%3Ffamily%3DArchitects%2BDaughter;fontStyle=1;" parent="1" vertex="1">
          <mxGeometry x="690" y="95" width="60" height="30" as="geometry" />
        </mxCell>
        <mxCell id="u3_5EbA_TvtJygDQ1i6E-10" value="&lt;div style=&quot;font-size: 14px;&quot;&gt;&lt;font style=&quot;font-size: 18px;&quot;&gt;&lt;b&gt;Navar&lt;/b&gt;&lt;/font&gt;&lt;/div&gt;" style="text;html=1;align=center;verticalAlign=middle;whiteSpace=wrap;rounded=0;fontFamily=Architects Daughter;fontSource=https%3A%2F%2Ffonts.googleapis.com%2Fcss%3Ffamily%3DArchitects%2BDaughter;" parent="1" vertex="1">
          <mxGeometry x="100" y="95" width="60" height="30" as="geometry" />
        </mxCell>
        <mxCell id="u3_5EbA_TvtJygDQ1i6E-11" value="" style="rounded=1;whiteSpace=wrap;html=1;hachureGap=4;fontFamily=Architects Daughter;fontSource=https%3A%2F%2Ffonts.googleapis.com%2Fcss%3Ffamily%3DArchitects%2BDaughter;" parent="1" vertex="1">
          <mxGeometry x="100" y="200" width="110" height="50" as="geometry" />
        </mxCell>
        <mxCell id="u3_5EbA_TvtJygDQ1i6E-12" value="" style="rounded=1;whiteSpace=wrap;html=1;hachureGap=4;fontFamily=Architects Daughter;fontSource=https%3A%2F%2Ffonts.googleapis.com%2Fcss%3Ffamily%3DArchitects%2BDaughter;" parent="1" vertex="1">
          <mxGeometry x="240" y="200" width="110" height="50" as="geometry" />
        </mxCell>
        <mxCell id="u3_5EbA_TvtJygDQ1i6E-13" value="" style="rounded=1;whiteSpace=wrap;html=1;hachureGap=4;fontFamily=Architects Daughter;fontSource=https%3A%2F%2Ffonts.googleapis.com%2Fcss%3Ffamily%3DArchitects%2BDaughter;" parent="1" vertex="1">
          <mxGeometry x="380" y="200" width="110" height="50" as="geometry" />
        </mxCell>
        <mxCell id="u3_5EbA_TvtJygDQ1i6E-14" value="" style="rounded=1;whiteSpace=wrap;html=1;hachureGap=4;fontFamily=Architects Daughter;fontSource=https%3A%2F%2Ffonts.googleapis.com%2Fcss%3Ffamily%3DArchitects%2BDaughter;" parent="1" vertex="1">
          <mxGeometry x="520" y="200" width="110" height="50" as="geometry" />
        </mxCell>
        <mxCell id="u3_5EbA_TvtJygDQ1i6E-15" value="" style="rounded=1;whiteSpace=wrap;html=1;hachureGap=4;fontFamily=Architects Daughter;fontSource=https%3A%2F%2Ffonts.googleapis.com%2Fcss%3Ffamily%3DArchitects%2BDaughter;" parent="1" vertex="1">
          <mxGeometry x="100" y="290" width="110" height="50" as="geometry" />
        </mxCell>
        <mxCell id="u3_5EbA_TvtJygDQ1i6E-16" value="" style="rounded=1;whiteSpace=wrap;html=1;hachureGap=4;fontFamily=Architects Daughter;fontSource=https%3A%2F%2Ffonts.googleapis.com%2Fcss%3Ffamily%3DArchitects%2BDaughter;" parent="1" vertex="1">
          <mxGeometry x="240" y="290" width="110" height="50" as="geometry" />
        </mxCell>
        <mxCell id="u3_5EbA_TvtJygDQ1i6E-17" value="" style="rounded=1;whiteSpace=wrap;html=1;hachureGap=4;fontFamily=Architects Daughter;fontSource=https%3A%2F%2Ffonts.googleapis.com%2Fcss%3Ffamily%3DArchitects%2BDaughter;" parent="1" vertex="1">
          <mxGeometry x="380" y="290" width="110" height="50" as="geometry" />
        </mxCell>
        <mxCell id="u3_5EbA_TvtJygDQ1i6E-18" value="" style="rounded=1;whiteSpace=wrap;html=1;hachureGap=4;fontFamily=Architects Daughter;fontSource=https%3A%2F%2Ffonts.googleapis.com%2Fcss%3Ffamily%3DArchitects%2BDaughter;" parent="1" vertex="1">
          <mxGeometry x="520" y="290" width="110" height="50" as="geometry" />
        </mxCell>
        <mxCell id="u3_5EbA_TvtJygDQ1i6E-19" value="&lt;div style=&quot;font-size: 17px;&quot;&gt;Projects&lt;/div&gt;" style="text;html=1;align=center;verticalAlign=middle;whiteSpace=wrap;rounded=0;fontFamily=Architects Daughter;fontSource=https%3A%2F%2Ffonts.googleapis.com%2Fcss%3Ffamily%3DArchitects%2BDaughter;fontSize=17;fontStyle=1;" parent="1" vertex="1">
          <mxGeometry x="330" y="150" width="60" height="30" as="geometry" />
        </mxCell>
        <mxCell id="u3_5EbA_TvtJygDQ1i6E-25" value="Add Project" style="rounded=1;whiteSpace=wrap;html=1;" parent="1" vertex="1">
          <mxGeometry x="570" y="400" width="100" height="30" as="geometry" />
        </mxCell>
        <mxCell id="u3_5EbA_TvtJygDQ1i6E-41" value="" style="rounded=0;whiteSpace=wrap;html=1;hachureGap=4;fontFamily=Architects Daughter;fontSource=https%3A%2F%2Ffonts.googleapis.com%2Fcss%3Ffamily%3DArchitects%2BDaughter;" parent="1" vertex="1">
          <mxGeometry x="80" y="-330" width="680" height="370" as="geometry" />
        </mxCell>
        <mxCell id="u3_5EbA_TvtJygDQ1i6E-42" value="" style="rounded=0;whiteSpace=wrap;html=1;hachureGap=4;fontFamily=Architects Daughter;fontSource=https%3A%2F%2Ffonts.googleapis.com%2Fcss%3Ffamily%3DArchitects%2BDaughter;" parent="1" vertex="1">
          <mxGeometry x="80" y="-330" width="600" height="60" as="geometry" />
        </mxCell>
        <mxCell id="u3_5EbA_TvtJygDQ1i6E-43" value="" style="rounded=0;whiteSpace=wrap;html=1;hachureGap=4;fontFamily=Architects Daughter;fontSource=https%3A%2F%2Ffonts.googleapis.com%2Fcss%3Ffamily%3DArchitects%2BDaughter;" parent="1" vertex="1">
          <mxGeometry x="680" y="-330" width="80" height="370" as="geometry" />
        </mxCell>
        <mxCell id="u3_5EbA_TvtJygDQ1i6E-45" value="&lt;div style=&quot;font-size: 14px;&quot;&gt;&lt;font style=&quot;font-size: 18px;&quot;&gt;&lt;b&gt;Navar&lt;/b&gt;&lt;/font&gt;&lt;/div&gt;" style="text;html=1;align=center;verticalAlign=middle;whiteSpace=wrap;rounded=0;fontFamily=Architects Daughter;fontSource=https%3A%2F%2Ffonts.googleapis.com%2Fcss%3Ffamily%3DArchitects%2BDaughter;" parent="1" vertex="1">
          <mxGeometry x="100" y="-315" width="60" height="30" as="geometry" />
        </mxCell>
        <mxCell id="u3_5EbA_TvtJygDQ1i6E-56" value="" style="rounded=0;whiteSpace=wrap;html=1;hachureGap=4;fontFamily=Architects Daughter;fontSource=https%3A%2F%2Ffonts.googleapis.com%2Fcss%3Ffamily%3DArchitects%2BDaughter;" parent="1" vertex="1">
          <mxGeometry x="900" y="80" width="680" height="370" as="geometry" />
        </mxCell>
        <mxCell id="u3_5EbA_TvtJygDQ1i6E-57" value="" style="rounded=0;whiteSpace=wrap;html=1;hachureGap=4;fontFamily=Architects Daughter;fontSource=https%3A%2F%2Ffonts.googleapis.com%2Fcss%3Ffamily%3DArchitects%2BDaughter;" parent="1" vertex="1">
          <mxGeometry x="900" y="80" width="600" height="60" as="geometry" />
        </mxCell>
        <mxCell id="u3_5EbA_TvtJygDQ1i6E-58" value="" style="rounded=0;whiteSpace=wrap;html=1;hachureGap=4;fontFamily=Architects Daughter;fontSource=https%3A%2F%2Ffonts.googleapis.com%2Fcss%3Ffamily%3DArchitects%2BDaughter;" parent="1" vertex="1">
          <mxGeometry x="1500" y="80" width="80" height="370" as="geometry" />
        </mxCell>
        <mxCell id="u3_5EbA_TvtJygDQ1i6E-59" value="&lt;font style=&quot;font-size: 16px;&quot;&gt;Brand&lt;/font&gt;" style="text;html=1;align=center;verticalAlign=middle;whiteSpace=wrap;rounded=0;fontFamily=Architects Daughter;fontSource=https%3A%2F%2Ffonts.googleapis.com%2Fcss%3Ffamily%3DArchitects%2BDaughter;fontStyle=1;" parent="1" vertex="1">
          <mxGeometry x="1510" y="95" width="60" height="30" as="geometry" />
        </mxCell>
        <mxCell id="u3_5EbA_TvtJygDQ1i6E-60" value="&lt;div style=&quot;font-size: 14px;&quot;&gt;&lt;font style=&quot;font-size: 18px;&quot;&gt;&lt;b&gt;Navar&lt;/b&gt;&lt;/font&gt;&lt;/div&gt;" style="text;html=1;align=center;verticalAlign=middle;whiteSpace=wrap;rounded=0;fontFamily=Architects Daughter;fontSource=https%3A%2F%2Ffonts.googleapis.com%2Fcss%3Ffamily%3DArchitects%2BDaughter;" parent="1" vertex="1">
          <mxGeometry x="920" y="95" width="60" height="30" as="geometry" />
        </mxCell>
        <mxCell id="u3_5EbA_TvtJygDQ1i6E-62" style="edgeStyle=orthogonalEdgeStyle;rounded=0;orthogonalLoop=1;jettySize=auto;html=1;entryX=-0.003;entryY=0.557;entryDx=0;entryDy=0;entryPerimeter=0;" parent="1" source="u3_5EbA_TvtJygDQ1i6E-25" target="u3_5EbA_TvtJygDQ1i6E-56" edge="1">
          <mxGeometry relative="1" as="geometry" />
        </mxCell>
        <mxCell id="u3_5EbA_TvtJygDQ1i6E-63" value="Project tittle: " style="rounded=1;whiteSpace=wrap;html=1;fontSize=14;" parent="1" vertex="1">
          <mxGeometry x="930" y="160" width="120" height="40" as="geometry" />
        </mxCell>
        <mxCell id="u3_5EbA_TvtJygDQ1i6E-64" value="&lt;div&gt;Project tasks&lt;/div&gt;" style="rounded=1;whiteSpace=wrap;html=1;fontSize=14;" parent="1" vertex="1">
          <mxGeometry x="930" y="230" width="120" height="40" as="geometry" />
        </mxCell>
        <mxCell id="u3_5EbA_TvtJygDQ1i6E-72" style="edgeStyle=orthogonalEdgeStyle;rounded=0;orthogonalLoop=1;jettySize=auto;html=1;entryX=0.767;entryY=0.018;entryDx=0;entryDy=0;entryPerimeter=0;" parent="1" source="u3_5EbA_TvtJygDQ1i6E-64" target="u3_5EbA_TvtJygDQ1i6E-74" edge="1">
          <mxGeometry relative="1" as="geometry">
            <mxPoint x="1399.8000000000002" y="531.0199999999995" as="targetPoint" />
          </mxGeometry>
        </mxCell>
        <mxCell id="u3_5EbA_TvtJygDQ1i6E-73" value="" style="rounded=0;whiteSpace=wrap;html=1;hachureGap=4;fontFamily=Architects Daughter;fontSource=https%3A%2F%2Ffonts.googleapis.com%2Fcss%3Ffamily%3DArchitects%2BDaughter;" parent="1" vertex="1">
          <mxGeometry x="900" y="540" width="680" height="370" as="geometry" />
        </mxCell>
        <mxCell id="u3_5EbA_TvtJygDQ1i6E-74" value="" style="rounded=0;whiteSpace=wrap;html=1;hachureGap=4;fontFamily=Architects Daughter;fontSource=https%3A%2F%2Ffonts.googleapis.com%2Fcss%3Ffamily%3DArchitects%2BDaughter;" parent="1" vertex="1">
          <mxGeometry x="900" y="540" width="600" height="60" as="geometry" />
        </mxCell>
        <mxCell id="u3_5EbA_TvtJygDQ1i6E-75" value="" style="rounded=0;whiteSpace=wrap;html=1;hachureGap=4;fontFamily=Architects Daughter;fontSource=https%3A%2F%2Ffonts.googleapis.com%2Fcss%3Ffamily%3DArchitects%2BDaughter;" parent="1" vertex="1">
          <mxGeometry x="1500" y="540" width="80" height="370" as="geometry" />
        </mxCell>
        <mxCell id="u3_5EbA_TvtJygDQ1i6E-76" value="&lt;font style=&quot;font-size: 16px;&quot;&gt;Brand&lt;/font&gt;" style="text;html=1;align=center;verticalAlign=middle;whiteSpace=wrap;rounded=0;fontFamily=Architects Daughter;fontSource=https%3A%2F%2Ffonts.googleapis.com%2Fcss%3Ffamily%3DArchitects%2BDaughter;fontStyle=1;" parent="1" vertex="1">
          <mxGeometry x="1510" y="555" width="60" height="30" as="geometry" />
        </mxCell>
        <mxCell id="u3_5EbA_TvtJygDQ1i6E-77" value="&lt;div style=&quot;font-size: 14px;&quot;&gt;&lt;font style=&quot;font-size: 18px;&quot;&gt;&lt;b&gt;Navar&lt;/b&gt;&lt;/font&gt;&lt;/div&gt;" style="text;html=1;align=center;verticalAlign=middle;whiteSpace=wrap;rounded=0;fontFamily=Architects Daughter;fontSource=https%3A%2F%2Ffonts.googleapis.com%2Fcss%3Ffamily%3DArchitects%2BDaughter;" parent="1" vertex="1">
          <mxGeometry x="920" y="555" width="60" height="30" as="geometry" />
        </mxCell>
        <mxCell id="u3_5EbA_TvtJygDQ1i6E-78" value="" style="rounded=1;whiteSpace=wrap;html=1;hachureGap=4;fontFamily=Architects Daughter;fontSource=https%3A%2F%2Ffonts.googleapis.com%2Fcss%3Ffamily%3DArchitects%2BDaughter;" parent="1" vertex="1">
          <mxGeometry x="920" y="660" width="110" height="50" as="geometry" />
        </mxCell>
        <mxCell id="u3_5EbA_TvtJygDQ1i6E-79" value="" style="rounded=1;whiteSpace=wrap;html=1;hachureGap=4;fontFamily=Architects Daughter;fontSource=https%3A%2F%2Ffonts.googleapis.com%2Fcss%3Ffamily%3DArchitects%2BDaughter;" parent="1" vertex="1">
          <mxGeometry x="1060" y="660" width="110" height="50" as="geometry" />
        </mxCell>
        <mxCell id="u3_5EbA_TvtJygDQ1i6E-80" value="" style="rounded=1;whiteSpace=wrap;html=1;hachureGap=4;fontFamily=Architects Daughter;fontSource=https%3A%2F%2Ffonts.googleapis.com%2Fcss%3Ffamily%3DArchitects%2BDaughter;" parent="1" vertex="1">
          <mxGeometry x="1200" y="660" width="110" height="50" as="geometry" />
        </mxCell>
        <mxCell id="u3_5EbA_TvtJygDQ1i6E-81" value="" style="rounded=1;whiteSpace=wrap;html=1;hachureGap=4;fontFamily=Architects Daughter;fontSource=https%3A%2F%2Ffonts.googleapis.com%2Fcss%3Ffamily%3DArchitects%2BDaughter;" parent="1" vertex="1">
          <mxGeometry x="1340" y="660" width="110" height="50" as="geometry" />
        </mxCell>
        <mxCell id="u3_5EbA_TvtJygDQ1i6E-82" value="" style="rounded=1;whiteSpace=wrap;html=1;hachureGap=4;fontFamily=Architects Daughter;fontSource=https%3A%2F%2Ffonts.googleapis.com%2Fcss%3Ffamily%3DArchitects%2BDaughter;" parent="1" vertex="1">
          <mxGeometry x="920" y="750" width="110" height="50" as="geometry" />
        </mxCell>
        <mxCell id="u3_5EbA_TvtJygDQ1i6E-83" value="" style="rounded=1;whiteSpace=wrap;html=1;hachureGap=4;fontFamily=Architects Daughter;fontSource=https%3A%2F%2Ffonts.googleapis.com%2Fcss%3Ffamily%3DArchitects%2BDaughter;" parent="1" vertex="1">
          <mxGeometry x="1060" y="750" width="110" height="50" as="geometry" />
        </mxCell>
        <mxCell id="u3_5EbA_TvtJygDQ1i6E-84" value="" style="rounded=1;whiteSpace=wrap;html=1;hachureGap=4;fontFamily=Architects Daughter;fontSource=https%3A%2F%2Ffonts.googleapis.com%2Fcss%3Ffamily%3DArchitects%2BDaughter;" parent="1" vertex="1">
          <mxGeometry x="1200" y="750" width="110" height="50" as="geometry" />
        </mxCell>
        <mxCell id="u3_5EbA_TvtJygDQ1i6E-85" value="" style="rounded=1;whiteSpace=wrap;html=1;hachureGap=4;fontFamily=Architects Daughter;fontSource=https%3A%2F%2Ffonts.googleapis.com%2Fcss%3Ffamily%3DArchitects%2BDaughter;" parent="1" vertex="1">
          <mxGeometry x="1340" y="750" width="110" height="50" as="geometry" />
        </mxCell>
        <mxCell id="u3_5EbA_TvtJygDQ1i6E-86" value="Tasks" style="text;html=1;align=center;verticalAlign=middle;whiteSpace=wrap;rounded=0;fontFamily=Architects Daughter;fontSource=https%3A%2F%2Ffonts.googleapis.com%2Fcss%3Ffamily%3DArchitects%2BDaughter;fontSize=17;fontStyle=1;" parent="1" vertex="1">
          <mxGeometry x="1150" y="610" width="60" height="30" as="geometry" />
        </mxCell>
        <mxCell id="u3_5EbA_TvtJygDQ1i6E-113" style="edgeStyle=orthogonalEdgeStyle;rounded=0;orthogonalLoop=1;jettySize=auto;html=1;entryX=0;entryY=0.75;entryDx=0;entryDy=0;" parent="1" source="u3_5EbA_TvtJygDQ1i6E-87" target="u3_5EbA_TvtJygDQ1i6E-99" edge="1">
          <mxGeometry relative="1" as="geometry" />
        </mxCell>
        <mxCell id="u3_5EbA_TvtJygDQ1i6E-87" value="&lt;font style=&quot;font-size: 15px;&quot;&gt;Add Task&lt;br&gt;&lt;/font&gt;" style="rounded=1;whiteSpace=wrap;html=1;" parent="1" vertex="1">
          <mxGeometry x="1390" y="860" width="100" height="30" as="geometry" />
        </mxCell>
        <mxCell id="u3_5EbA_TvtJygDQ1i6E-89" value="Start date" style="rounded=1;whiteSpace=wrap;html=1;fontSize=14;" parent="1" vertex="1">
          <mxGeometry x="1220" y="160" width="120" height="40" as="geometry" />
        </mxCell>
        <mxCell id="u3_5EbA_TvtJygDQ1i6E-94" value="estimated end time" style="rounded=1;whiteSpace=wrap;html=1;fontSize=14;" parent="1" vertex="1">
          <mxGeometry x="1220" y="230" width="120" height="40" as="geometry" />
        </mxCell>
        <mxCell id="u3_5EbA_TvtJygDQ1i6E-97" value="estimated cost" style="rounded=1;whiteSpace=wrap;html=1;fontSize=14;" parent="1" vertex="1">
          <mxGeometry x="1220" y="320" width="120" height="40" as="geometry" />
        </mxCell>
        <mxCell id="u3_5EbA_TvtJygDQ1i6E-99" value="" style="rounded=0;whiteSpace=wrap;html=1;hachureGap=4;fontFamily=Architects Daughter;fontSource=https%3A%2F%2Ffonts.googleapis.com%2Fcss%3Ffamily%3DArchitects%2BDaughter;" parent="1" vertex="1">
          <mxGeometry x="1720" y="550" width="680" height="370" as="geometry" />
        </mxCell>
        <mxCell id="u3_5EbA_TvtJygDQ1i6E-100" value="" style="rounded=0;whiteSpace=wrap;html=1;hachureGap=4;fontFamily=Architects Daughter;fontSource=https%3A%2F%2Ffonts.googleapis.com%2Fcss%3Ffamily%3DArchitects%2BDaughter;" parent="1" vertex="1">
          <mxGeometry x="1720" y="550" width="600" height="60" as="geometry" />
        </mxCell>
        <mxCell id="u3_5EbA_TvtJygDQ1i6E-101" value="" style="rounded=0;whiteSpace=wrap;html=1;hachureGap=4;fontFamily=Architects Daughter;fontSource=https%3A%2F%2Ffonts.googleapis.com%2Fcss%3Ffamily%3DArchitects%2BDaughter;" parent="1" vertex="1">
          <mxGeometry x="2320" y="550" width="80" height="370" as="geometry" />
        </mxCell>
        <mxCell id="u3_5EbA_TvtJygDQ1i6E-102" value="&lt;font style=&quot;font-size: 16px;&quot;&gt;Brand&lt;/font&gt;" style="text;html=1;align=center;verticalAlign=middle;whiteSpace=wrap;rounded=0;fontFamily=Architects Daughter;fontSource=https%3A%2F%2Ffonts.googleapis.com%2Fcss%3Ffamily%3DArchitects%2BDaughter;fontStyle=1;" parent="1" vertex="1">
          <mxGeometry x="2330" y="565" width="60" height="30" as="geometry" />
        </mxCell>
        <mxCell id="u3_5EbA_TvtJygDQ1i6E-103" value="&lt;div style=&quot;font-size: 14px;&quot;&gt;&lt;font style=&quot;font-size: 18px;&quot;&gt;&lt;b&gt;Navar&lt;/b&gt;&lt;/font&gt;&lt;/div&gt;" style="text;html=1;align=center;verticalAlign=middle;whiteSpace=wrap;rounded=0;fontFamily=Architects Daughter;fontSource=https%3A%2F%2Ffonts.googleapis.com%2Fcss%3Ffamily%3DArchitects%2BDaughter;" parent="1" vertex="1">
          <mxGeometry x="1740" y="565" width="60" height="30" as="geometry" />
        </mxCell>
        <mxCell id="u3_5EbA_TvtJygDQ1i6E-104" value="task title" style="rounded=1;whiteSpace=wrap;html=1;fontSize=14;" parent="1" vertex="1">
          <mxGeometry x="1750" y="700" width="120" height="40" as="geometry" />
        </mxCell>
        <mxCell id="nrmwwnFytRlc-2MW3OOw-3" value="&lt;font style=&quot;font-size: 15px;&quot;&gt;Add worker&lt;br&gt;&lt;/font&gt;" style="rounded=1;whiteSpace=wrap;html=1;" vertex="1" parent="1">
          <mxGeometry x="2100" y="870" width="100" height="30" as="geometry" />
        </mxCell>
        <mxCell id="nrmwwnFytRlc-2MW3OOw-4" value="" style="rounded=0;whiteSpace=wrap;html=1;hachureGap=4;fontFamily=Architects Daughter;fontSource=https%3A%2F%2Ffonts.googleapis.com%2Fcss%3Ffamily%3DArchitects%2BDaughter;" vertex="1" parent="1">
          <mxGeometry x="1720" y="1010" width="680" height="370" as="geometry" />
        </mxCell>
        <mxCell id="nrmwwnFytRlc-2MW3OOw-5" value="" style="rounded=0;whiteSpace=wrap;html=1;hachureGap=4;fontFamily=Architects Daughter;fontSource=https%3A%2F%2Ffonts.googleapis.com%2Fcss%3Ffamily%3DArchitects%2BDaughter;" vertex="1" parent="1">
          <mxGeometry x="1720" y="1010" width="600" height="60" as="geometry" />
        </mxCell>
        <mxCell id="nrmwwnFytRlc-2MW3OOw-6" value="" style="rounded=0;whiteSpace=wrap;html=1;hachureGap=4;fontFamily=Architects Daughter;fontSource=https%3A%2F%2Ffonts.googleapis.com%2Fcss%3Ffamily%3DArchitects%2BDaughter;" vertex="1" parent="1">
          <mxGeometry x="2320" y="1010" width="80" height="370" as="geometry" />
        </mxCell>
        <mxCell id="nrmwwnFytRlc-2MW3OOw-7" value="&lt;font style=&quot;font-size: 16px;&quot;&gt;Brand&lt;/font&gt;" style="text;html=1;align=center;verticalAlign=middle;whiteSpace=wrap;rounded=0;fontFamily=Architects Daughter;fontSource=https%3A%2F%2Ffonts.googleapis.com%2Fcss%3Ffamily%3DArchitects%2BDaughter;fontStyle=1;" vertex="1" parent="1">
          <mxGeometry x="2330" y="1025" width="60" height="30" as="geometry" />
        </mxCell>
        <mxCell id="nrmwwnFytRlc-2MW3OOw-8" value="&lt;div style=&quot;font-size: 14px;&quot;&gt;&lt;font style=&quot;font-size: 18px;&quot;&gt;&lt;b&gt;Navar&lt;/b&gt;&lt;/font&gt;&lt;/div&gt;" style="text;html=1;align=center;verticalAlign=middle;whiteSpace=wrap;rounded=0;fontFamily=Architects Daughter;fontSource=https%3A%2F%2Ffonts.googleapis.com%2Fcss%3Ffamily%3DArchitects%2BDaughter;" vertex="1" parent="1">
          <mxGeometry x="1740" y="1025" width="60" height="30" as="geometry" />
        </mxCell>
        <mxCell id="nrmwwnFytRlc-2MW3OOw-18" value="Worker list" style="rounded=1;whiteSpace=wrap;html=1;fontSize=14;" vertex="1" parent="1">
          <mxGeometry x="1750" y="770" width="120" height="40" as="geometry" />
        </mxCell>
        <mxCell id="nrmwwnFytRlc-2MW3OOw-19" style="edgeStyle=orthogonalEdgeStyle;rounded=0;orthogonalLoop=1;jettySize=auto;html=1;entryX=0.2;entryY=0;entryDx=0;entryDy=0;entryPerimeter=0;" edge="1" parent="1" source="nrmwwnFytRlc-2MW3OOw-18" target="nrmwwnFytRlc-2MW3OOw-5">
          <mxGeometry relative="1" as="geometry" />
        </mxCell>
        <mxCell id="nrmwwnFytRlc-2MW3OOw-21" value="first name:&amp;nbsp;" style="rounded=1;whiteSpace=wrap;html=1;fontSize=14;" vertex="1" parent="1">
          <mxGeometry x="1760" y="1130" width="120" height="40" as="geometry" />
        </mxCell>
        <mxCell id="nrmwwnFytRlc-2MW3OOw-24" value="last name:&amp;nbsp;" style="rounded=1;whiteSpace=wrap;html=1;fontSize=14;" vertex="1" parent="1">
          <mxGeometry x="1900" y="1130" width="120" height="40" as="geometry" />
        </mxCell>
        <mxCell id="nrmwwnFytRlc-2MW3OOw-27" value="job title" style="rounded=1;whiteSpace=wrap;html=1;fontSize=14;" vertex="1" parent="1">
          <mxGeometry x="2180" y="1130" width="120" height="40" as="geometry" />
        </mxCell>
        <mxCell id="nrmwwnFytRlc-2MW3OOw-87" value="" style="edgeStyle=orthogonalEdgeStyle;rounded=0;orthogonalLoop=1;jettySize=auto;html=1;" edge="1" parent="1" target="nrmwwnFytRlc-2MW3OOw-86">
          <mxGeometry relative="1" as="geometry">
            <mxPoint x="2250" y="1125" as="sourcePoint" />
          </mxGeometry>
        </mxCell>
        <mxCell id="nrmwwnFytRlc-2MW3OOw-32" value="" style="rounded=0;whiteSpace=wrap;html=1;" vertex="1" parent="1">
          <mxGeometry x="680" y="-330" width="80" height="60" as="geometry" />
        </mxCell>
        <mxCell id="u3_5EbA_TvtJygDQ1i6E-44" value="&lt;font style=&quot;font-size: 16px;&quot;&gt;Brand&lt;/font&gt;" style="text;html=1;align=center;verticalAlign=middle;whiteSpace=wrap;rounded=0;fontFamily=Architects Daughter;fontSource=https%3A%2F%2Ffonts.googleapis.com%2Fcss%3Ffamily%3DArchitects%2BDaughter;fontStyle=1;" parent="1" vertex="1">
          <mxGeometry x="690" y="-315" width="60" height="30" as="geometry" />
        </mxCell>
        <mxCell id="nrmwwnFytRlc-2MW3OOw-35" value="Dashbord" style="rounded=0;whiteSpace=wrap;html=1;" vertex="1" parent="1">
          <mxGeometry x="680" y="-270" width="80" height="40" as="geometry" />
        </mxCell>
        <mxCell id="nrmwwnFytRlc-2MW3OOw-36" value="Reports" style="rounded=0;whiteSpace=wrap;html=1;" vertex="1" parent="1">
          <mxGeometry x="680" y="-230" width="80" height="40" as="geometry" />
        </mxCell>
        <mxCell id="nrmwwnFytRlc-2MW3OOw-37" value="Projects" style="rounded=0;whiteSpace=wrap;html=1;" vertex="1" parent="1">
          <mxGeometry x="680" y="-110" width="80" height="40" as="geometry" />
        </mxCell>
        <mxCell id="nrmwwnFytRlc-2MW3OOw-38" value="Availabale workers" style="rounded=0;whiteSpace=wrap;html=1;" vertex="1" parent="1">
          <mxGeometry x="680" y="-190" width="80" height="40" as="geometry" />
        </mxCell>
        <mxCell id="nrmwwnFytRlc-2MW3OOw-39" value="Add worker" style="rounded=0;whiteSpace=wrap;html=1;" vertex="1" parent="1">
          <mxGeometry x="680" y="-150" width="80" height="40" as="geometry" />
        </mxCell>
        <mxCell id="nrmwwnFytRlc-2MW3OOw-40" value="Dashbord" style="rounded=0;whiteSpace=wrap;html=1;" vertex="1" parent="1">
          <mxGeometry x="680" y="140" width="80" height="40" as="geometry" />
        </mxCell>
        <mxCell id="nrmwwnFytRlc-2MW3OOw-41" value="Reports" style="rounded=0;whiteSpace=wrap;html=1;" vertex="1" parent="1">
          <mxGeometry x="680" y="180" width="80" height="40" as="geometry" />
        </mxCell>
        <mxCell id="nrmwwnFytRlc-2MW3OOw-42" value="Projects" style="rounded=0;whiteSpace=wrap;html=1;" vertex="1" parent="1">
          <mxGeometry x="680" y="300" width="80" height="40" as="geometry" />
        </mxCell>
        <mxCell id="nrmwwnFytRlc-2MW3OOw-43" value="Availabale workers" style="rounded=0;whiteSpace=wrap;html=1;" vertex="1" parent="1">
          <mxGeometry x="680" y="220" width="80" height="40" as="geometry" />
        </mxCell>
        <mxCell id="nrmwwnFytRlc-2MW3OOw-44" value="Add worker" style="rounded=0;whiteSpace=wrap;html=1;" vertex="1" parent="1">
          <mxGeometry x="680" y="260" width="80" height="40" as="geometry" />
        </mxCell>
        <mxCell id="nrmwwnFytRlc-2MW3OOw-45" value="Dashbord" style="rounded=0;whiteSpace=wrap;html=1;" vertex="1" parent="1">
          <mxGeometry x="1500" y="140" width="80" height="40" as="geometry" />
        </mxCell>
        <mxCell id="nrmwwnFytRlc-2MW3OOw-46" value="Reports" style="rounded=0;whiteSpace=wrap;html=1;" vertex="1" parent="1">
          <mxGeometry x="1500" y="180" width="80" height="40" as="geometry" />
        </mxCell>
        <mxCell id="nrmwwnFytRlc-2MW3OOw-47" value="Projects" style="rounded=0;whiteSpace=wrap;html=1;" vertex="1" parent="1">
          <mxGeometry x="1500" y="300" width="80" height="40" as="geometry" />
        </mxCell>
        <mxCell id="nrmwwnFytRlc-2MW3OOw-48" value="Availabale workers" style="rounded=0;whiteSpace=wrap;html=1;" vertex="1" parent="1">
          <mxGeometry x="1500" y="220" width="80" height="40" as="geometry" />
        </mxCell>
        <mxCell id="nrmwwnFytRlc-2MW3OOw-49" value="Add worker" style="rounded=0;whiteSpace=wrap;html=1;" vertex="1" parent="1">
          <mxGeometry x="1500" y="260" width="80" height="40" as="geometry" />
        </mxCell>
        <mxCell id="nrmwwnFytRlc-2MW3OOw-50" value="Dashbord" style="rounded=0;whiteSpace=wrap;html=1;" vertex="1" parent="1">
          <mxGeometry x="1500" y="600" width="80" height="40" as="geometry" />
        </mxCell>
        <mxCell id="nrmwwnFytRlc-2MW3OOw-51" value="Reports" style="rounded=0;whiteSpace=wrap;html=1;" vertex="1" parent="1">
          <mxGeometry x="1500" y="640" width="80" height="40" as="geometry" />
        </mxCell>
        <mxCell id="nrmwwnFytRlc-2MW3OOw-52" value="Projects" style="rounded=0;whiteSpace=wrap;html=1;" vertex="1" parent="1">
          <mxGeometry x="1500" y="760" width="80" height="40" as="geometry" />
        </mxCell>
        <mxCell id="nrmwwnFytRlc-2MW3OOw-53" value="Availabale workers" style="rounded=0;whiteSpace=wrap;html=1;" vertex="1" parent="1">
          <mxGeometry x="1500" y="680" width="80" height="40" as="geometry" />
        </mxCell>
        <mxCell id="nrmwwnFytRlc-2MW3OOw-54" value="Add worker" style="rounded=0;whiteSpace=wrap;html=1;" vertex="1" parent="1">
          <mxGeometry x="1500" y="720" width="80" height="40" as="geometry" />
        </mxCell>
        <mxCell id="nrmwwnFytRlc-2MW3OOw-55" value="Dashbord" style="rounded=0;whiteSpace=wrap;html=1;" vertex="1" parent="1">
          <mxGeometry x="2320" y="610" width="80" height="40" as="geometry" />
        </mxCell>
        <mxCell id="nrmwwnFytRlc-2MW3OOw-56" value="Reports" style="rounded=0;whiteSpace=wrap;html=1;" vertex="1" parent="1">
          <mxGeometry x="2320" y="650" width="80" height="40" as="geometry" />
        </mxCell>
        <mxCell id="nrmwwnFytRlc-2MW3OOw-57" value="Projects" style="rounded=0;whiteSpace=wrap;html=1;" vertex="1" parent="1">
          <mxGeometry x="2320" y="770" width="80" height="40" as="geometry" />
        </mxCell>
        <mxCell id="nrmwwnFytRlc-2MW3OOw-58" value="Availabale workers" style="rounded=0;whiteSpace=wrap;html=1;" vertex="1" parent="1">
          <mxGeometry x="2320" y="690" width="80" height="40" as="geometry" />
        </mxCell>
        <mxCell id="nrmwwnFytRlc-2MW3OOw-59" value="Add worker" style="rounded=0;whiteSpace=wrap;html=1;" vertex="1" parent="1">
          <mxGeometry x="2320" y="730" width="80" height="40" as="geometry" />
        </mxCell>
        <mxCell id="nrmwwnFytRlc-2MW3OOw-60" value="Dashbord" style="rounded=0;whiteSpace=wrap;html=1;" vertex="1" parent="1">
          <mxGeometry x="2320" y="1070" width="80" height="40" as="geometry" />
        </mxCell>
        <mxCell id="nrmwwnFytRlc-2MW3OOw-61" value="Reports" style="rounded=0;whiteSpace=wrap;html=1;" vertex="1" parent="1">
          <mxGeometry x="2320" y="1110" width="80" height="40" as="geometry" />
        </mxCell>
        <mxCell id="nrmwwnFytRlc-2MW3OOw-62" value="Projects" style="rounded=0;whiteSpace=wrap;html=1;" vertex="1" parent="1">
          <mxGeometry x="2320" y="1230" width="80" height="40" as="geometry" />
        </mxCell>
        <mxCell id="nrmwwnFytRlc-2MW3OOw-63" value="Availabale workers" style="rounded=0;whiteSpace=wrap;html=1;" vertex="1" parent="1">
          <mxGeometry x="2320" y="1150" width="80" height="40" as="geometry" />
        </mxCell>
        <mxCell id="nrmwwnFytRlc-2MW3OOw-64" value="Add worker" style="rounded=0;whiteSpace=wrap;html=1;" vertex="1" parent="1">
          <mxGeometry x="2320" y="1190" width="80" height="40" as="geometry" />
        </mxCell>
        <mxCell id="nrmwwnFytRlc-2MW3OOw-65" value="first name:&amp;nbsp;" style="rounded=1;whiteSpace=wrap;html=1;fontSize=14;" vertex="1" parent="1">
          <mxGeometry x="1760" y="1250" width="120" height="40" as="geometry" />
        </mxCell>
        <mxCell id="nrmwwnFytRlc-2MW3OOw-68" value="last name:&amp;nbsp;" style="rounded=1;whiteSpace=wrap;html=1;fontSize=14;" vertex="1" parent="1">
          <mxGeometry x="1900" y="1250" width="120" height="40" as="geometry" />
        </mxCell>
        <mxCell id="nrmwwnFytRlc-2MW3OOw-69" value="job title" style="rounded=1;whiteSpace=wrap;html=1;fontSize=14;" vertex="1" parent="1">
          <mxGeometry x="2180" y="1250" width="120" height="40" as="geometry" />
        </mxCell>
        <mxCell id="nrmwwnFytRlc-2MW3OOw-85" value="&lt;span style=&quot;font-size: 15px;&quot;&gt;Create&lt;/span&gt;" style="rounded=1;whiteSpace=wrap;html=1;" vertex="1" parent="1">
          <mxGeometry x="2210" y="870" width="100" height="30" as="geometry" />
        </mxCell>
        <mxCell id="nrmwwnFytRlc-2MW3OOw-89" style="edgeStyle=orthogonalEdgeStyle;rounded=0;orthogonalLoop=1;jettySize=auto;html=1;entryX=1.017;entryY=0.971;entryDx=0;entryDy=0;entryPerimeter=0;" edge="1" parent="1" source="nrmwwnFytRlc-2MW3OOw-85" target="u3_5EbA_TvtJygDQ1i6E-75">
          <mxGeometry relative="1" as="geometry" />
        </mxCell>
        <mxCell id="nrmwwnFytRlc-2MW3OOw-90" value="&lt;font style=&quot;font-size: 15px;&quot;&gt;Add worker&lt;br&gt;&lt;/font&gt;" style="rounded=1;whiteSpace=wrap;html=1;" vertex="1" parent="1">
          <mxGeometry x="2200" y="1330" width="100" height="30" as="geometry" />
        </mxCell>
        <mxCell id="nrmwwnFytRlc-2MW3OOw-91" value="" style="rounded=0;whiteSpace=wrap;html=1;hachureGap=4;fontFamily=Architects Daughter;fontSource=https%3A%2F%2Ffonts.googleapis.com%2Fcss%3Ffamily%3DArchitects%2BDaughter;" vertex="1" parent="1">
          <mxGeometry x="2550" y="790" width="680" height="370" as="geometry" />
        </mxCell>
        <mxCell id="nrmwwnFytRlc-2MW3OOw-92" value="" style="rounded=0;whiteSpace=wrap;html=1;hachureGap=4;fontFamily=Architects Daughter;fontSource=https%3A%2F%2Ffonts.googleapis.com%2Fcss%3Ffamily%3DArchitects%2BDaughter;" vertex="1" parent="1">
          <mxGeometry x="2550" y="790" width="600" height="60" as="geometry" />
        </mxCell>
        <mxCell id="nrmwwnFytRlc-2MW3OOw-93" value="" style="rounded=0;whiteSpace=wrap;html=1;hachureGap=4;fontFamily=Architects Daughter;fontSource=https%3A%2F%2Ffonts.googleapis.com%2Fcss%3Ffamily%3DArchitects%2BDaughter;" vertex="1" parent="1">
          <mxGeometry x="3150" y="790" width="80" height="370" as="geometry" />
        </mxCell>
        <mxCell id="nrmwwnFytRlc-2MW3OOw-94" value="&lt;font style=&quot;font-size: 16px;&quot;&gt;Brand&lt;/font&gt;" style="text;html=1;align=center;verticalAlign=middle;whiteSpace=wrap;rounded=0;fontFamily=Architects Daughter;fontSource=https%3A%2F%2Ffonts.googleapis.com%2Fcss%3Ffamily%3DArchitects%2BDaughter;fontStyle=1;" vertex="1" parent="1">
          <mxGeometry x="3160" y="805" width="60" height="30" as="geometry" />
        </mxCell>
        <mxCell id="nrmwwnFytRlc-2MW3OOw-95" value="&lt;div style=&quot;font-size: 14px;&quot;&gt;&lt;font style=&quot;font-size: 18px;&quot;&gt;&lt;b&gt;Navar&lt;/b&gt;&lt;/font&gt;&lt;/div&gt;" style="text;html=1;align=center;verticalAlign=middle;whiteSpace=wrap;rounded=0;fontFamily=Architects Daughter;fontSource=https%3A%2F%2Ffonts.googleapis.com%2Fcss%3Ffamily%3DArchitects%2BDaughter;" vertex="1" parent="1">
          <mxGeometry x="2570" y="805" width="60" height="30" as="geometry" />
        </mxCell>
        <mxCell id="nrmwwnFytRlc-2MW3OOw-96" value="first name" style="rounded=1;whiteSpace=wrap;html=1;fontSize=14;" vertex="1" parent="1">
          <mxGeometry x="2580" y="870" width="120" height="40" as="geometry" />
        </mxCell>
        <mxCell id="nrmwwnFytRlc-2MW3OOw-97" value="last name" style="rounded=1;whiteSpace=wrap;html=1;fontSize=14;" vertex="1" parent="1">
          <mxGeometry x="2580" y="940" width="120" height="40" as="geometry" />
        </mxCell>
        <mxCell id="nrmwwnFytRlc-2MW3OOw-103" value="Dashbord" style="rounded=0;whiteSpace=wrap;html=1;" vertex="1" parent="1">
          <mxGeometry x="3150" y="850" width="80" height="40" as="geometry" />
        </mxCell>
        <mxCell id="nrmwwnFytRlc-2MW3OOw-104" value="Reports" style="rounded=0;whiteSpace=wrap;html=1;" vertex="1" parent="1">
          <mxGeometry x="3150" y="890" width="80" height="40" as="geometry" />
        </mxCell>
        <mxCell id="nrmwwnFytRlc-2MW3OOw-105" value="Projects" style="rounded=0;whiteSpace=wrap;html=1;" vertex="1" parent="1">
          <mxGeometry x="3150" y="1010" width="80" height="40" as="geometry" />
        </mxCell>
        <mxCell id="nrmwwnFytRlc-2MW3OOw-106" value="Availabale workers" style="rounded=0;whiteSpace=wrap;html=1;" vertex="1" parent="1">
          <mxGeometry x="3150" y="930" width="80" height="40" as="geometry" />
        </mxCell>
        <mxCell id="nrmwwnFytRlc-2MW3OOw-107" value="Add worker" style="rounded=0;whiteSpace=wrap;html=1;" vertex="1" parent="1">
          <mxGeometry x="3150" y="970" width="80" height="40" as="geometry" />
        </mxCell>
        <mxCell id="nrmwwnFytRlc-2MW3OOw-108" value="&lt;span style=&quot;font-size: 15px;&quot;&gt;Create&lt;/span&gt;" style="rounded=1;whiteSpace=wrap;html=1;" vertex="1" parent="1">
          <mxGeometry x="3040" y="1110" width="100" height="30" as="geometry" />
        </mxCell>
        <mxCell id="nrmwwnFytRlc-2MW3OOw-109" style="edgeStyle=orthogonalEdgeStyle;rounded=0;orthogonalLoop=1;jettySize=auto;html=1;entryX=0;entryY=0.4;entryDx=0;entryDy=0;entryPerimeter=0;" edge="1" parent="1" source="nrmwwnFytRlc-2MW3OOw-3" target="nrmwwnFytRlc-2MW3OOw-91">
          <mxGeometry relative="1" as="geometry" />
        </mxCell>
        <mxCell id="nrmwwnFytRlc-2MW3OOw-110" style="edgeStyle=orthogonalEdgeStyle;rounded=0;orthogonalLoop=1;jettySize=auto;html=1;entryX=0.106;entryY=1;entryDx=0;entryDy=0;entryPerimeter=0;" edge="1" parent="1" source="nrmwwnFytRlc-2MW3OOw-90" target="nrmwwnFytRlc-2MW3OOw-91">
          <mxGeometry relative="1" as="geometry" />
        </mxCell>
        <mxCell id="nrmwwnFytRlc-2MW3OOw-111" value="job title" style="rounded=1;whiteSpace=wrap;html=1;fontSize=14;" vertex="1" parent="1">
          <mxGeometry x="2580" y="1010" width="120" height="40" as="geometry" />
        </mxCell>
        <mxCell id="nrmwwnFytRlc-2MW3OOw-112" value="fee per hour" style="rounded=1;whiteSpace=wrap;html=1;fontSize=14;" vertex="1" parent="1">
          <mxGeometry x="2580" y="1080" width="120" height="40" as="geometry" />
        </mxCell>
        <mxCell id="nrmwwnFytRlc-2MW3OOw-113" value="fee per hour" style="rounded=1;whiteSpace=wrap;html=1;fontSize=14;" vertex="1" parent="1">
          <mxGeometry x="2040" y="1130" width="120" height="40" as="geometry" />
        </mxCell>
        <mxCell id="nrmwwnFytRlc-2MW3OOw-115" value="fee per hour" style="rounded=1;whiteSpace=wrap;html=1;fontSize=14;" vertex="1" parent="1">
          <mxGeometry x="2040" y="1250" width="120" height="40" as="geometry" />
        </mxCell>
        <mxCell id="nrmwwnFytRlc-2MW3OOw-119" value="1." style="text;html=1;align=center;verticalAlign=middle;whiteSpace=wrap;rounded=0;" vertex="1" parent="1">
          <mxGeometry x="1710" y="1135" width="60" height="30" as="geometry" />
        </mxCell>
        <mxCell id="nrmwwnFytRlc-2MW3OOw-121" value="2." style="text;html=1;align=center;verticalAlign=middle;whiteSpace=wrap;rounded=0;" vertex="1" parent="1">
          <mxGeometry x="1710" y="1255" width="60" height="30" as="geometry" />
        </mxCell>
        <mxCell id="nrmwwnFytRlc-2MW3OOw-134" style="edgeStyle=orthogonalEdgeStyle;rounded=0;orthogonalLoop=1;jettySize=auto;html=1;" edge="1" parent="1" source="nrmwwnFytRlc-2MW3OOw-132">
          <mxGeometry relative="1" as="geometry">
            <mxPoint x="2030" y="940" as="targetPoint" />
          </mxGeometry>
        </mxCell>
        <mxCell id="nrmwwnFytRlc-2MW3OOw-132" value="add to task" style="rounded=1;whiteSpace=wrap;html=1;" vertex="1" parent="1">
          <mxGeometry x="1780" y="1180" width="80" height="30" as="geometry" />
        </mxCell>
        <mxCell id="nrmwwnFytRlc-2MW3OOw-133" value="add to task" style="rounded=1;whiteSpace=wrap;html=1;" vertex="1" parent="1">
          <mxGeometry x="1780" y="1300" width="80" height="30" as="geometry" />
        </mxCell>
        <mxCell id="nrmwwnFytRlc-2MW3OOw-135" style="edgeStyle=orthogonalEdgeStyle;rounded=0;orthogonalLoop=1;jettySize=auto;html=1;entryX=1.062;entryY=0.795;entryDx=0;entryDy=0;entryPerimeter=0;" edge="1" parent="1" source="nrmwwnFytRlc-2MW3OOw-108" target="nrmwwnFytRlc-2MW3OOw-6">
          <mxGeometry relative="1" as="geometry" />
        </mxCell>
        <mxCell id="nrmwwnFytRlc-2MW3OOw-136" value="Workers" style="text;html=1;align=center;verticalAlign=middle;whiteSpace=wrap;rounded=0;fontFamily=Architects Daughter;fontSource=https%3A%2F%2Ffonts.googleapis.com%2Fcss%3Ffamily%3DArchitects%2BDaughter;fontSize=17;fontStyle=1;" vertex="1" parent="1">
          <mxGeometry x="2010" y="1080" width="60" height="30" as="geometry" />
        </mxCell>
        <mxCell id="nrmwwnFytRlc-2MW3OOw-138" value="Search &quot;Tasks&quot;" style="rounded=0;whiteSpace=wrap;html=1;" vertex="1" parent="1">
          <mxGeometry x="1290" y="540" width="210" height="60" as="geometry" />
        </mxCell>
        <mxCell id="nrmwwnFytRlc-2MW3OOw-139" value="Search &quot;Projects&quot;" style="rounded=0;whiteSpace=wrap;html=1;" vertex="1" parent="1">
          <mxGeometry x="470" y="80" width="210" height="60" as="geometry" />
        </mxCell>
        <mxCell id="nrmwwnFytRlc-2MW3OOw-141" value="project title" style="rounded=1;whiteSpace=wrap;html=1;fontSize=14;" vertex="1" parent="1">
          <mxGeometry x="1750" y="630" width="120" height="40" as="geometry" />
        </mxCell>
      </root>
    </mxGraphModel>
  </diagram>
</mxfile>
